HIERARCHY
ROOT Hips
{
  OFFSET 3.13124 94.3669 -3.18751
  CHANNELS  6 Xposition Yposition Zposition Zrotation Xrotation Yrotation
  JOINT LeftUpLeg
  {
    OFFSET 8.64259 1.95398 -2.38835
    CHANNELS 3 Zrotation Xrotation Yrotation
    JOINT LeftLeg
    {
      OFFSET 43.7702 0 0
      CHANNELS 3 Zrotation Xrotation Yrotation
      JOINT LeftFoot
      {
        OFFSET 40.6238 0 0
        CHANNELS 3 Zrotation Xrotation Yrotation
        JOINT LeftToeBase
        {
          OFFSET 12.7242 0 0
          CHANNELS 3 Zrotation Xrotation Yrotation
          End Site
          {
            OFFSET 0 0 0
          }
        }
      }
    }
  }
  JOINT RightUpLeg
  {
    OFFSET -8.2249 1.95398 -2.59336
    CHANNELS 3 Zrotation Xrotation Yrotation
    JOINT RightLeg
    {
      OFFSET 43.5653 0 0
      CHANNELS 3 Zrotation Xrotation Yrotation
      JOINT RightFoot
      {
        OFFSET 40.6238 0 0
        CHANNELS 3 Zrotation Xrotation Yrotation
        JOINT RightToeBase
        {
          OFFSET 12.7242 0 0
          CHANNELS 3 Zrotation Xrotation Yrotation
          End Site
          {
            OFFSET 0 0 0
          }
        }
      }
    }
  }
  JOINT Spine
  {
    OFFSET 0.165834 0.87714 6.61349
    CHANNELS 3 Zrotation Xrotation Yrotation
    JOINT Spine1
    {
      OFFSET 7.38962 1.71661e-005 0
      CHANNELS 3 Zrotation Xrotation Yrotation
      JOINT Spine2
      {
        OFFSET 11.9445 1.14441e-005 0
        CHANNELS 3 Zrotation Xrotation Yrotation
        JOINT Spine3
        {
          OFFSET 14.7254 4.19617e-005 0
          CHANNELS 3 Zrotation Xrotation Yrotation
          JOINT Spine4
          {
            OFFSET 10.9679 0 0
            CHANNELS 3 Zrotation Xrotation Yrotation
            JOINT RightShoulder
            {
              OFFSET 2.46616 -1.6653 3.69651
              CHANNELS 3 Zrotation Xrotation Yrotation
              JOINT RightArm
              {
                OFFSET 13.0012 0 0
                CHANNELS 3 Zrotation Xrotation Yrotation
                JOINT RightForeArm
                {
                  OFFSET 28.7848 1.52588e-005 0
                  CHANNELS 3 Zrotation Xrotation Yrotation
                  JOINT RightHand
                  {
                    OFFSET 26.5688 1.52588e-005 0
                    CHANNELS 3 Zrotation Xrotation Yrotation
                    End Site
                    {
                      OFFSET 0 0 0
                    }
                  }
                }
              }
            }
            JOINT LeftShoulder
            {
              OFFSET 2.38034 -1.29275 -3.75231
              CHANNELS 3 Zrotation Xrotation Yrotation
              JOINT LeftArm
              {
                OFFSET 16.3182 6.10352e-005 0
                CHANNELS 3 Zrotation Xrotation Yrotation
                JOINT LeftForeArm
                {
                  OFFSET 27.0901 0 0
                  CHANNELS 3 Zrotation Xrotation Yrotation
                  JOINT LeftHand
                  {
                    OFFSET 24.5451 1.52588e-005 0
                    CHANNELS 3 Zrotation Xrotation Yrotation
                    End Site
                    {
                      OFFSET 0 0 0
                    }
                  }
                }
              }
            }
            JOINT Neck
            {
              OFFSET 5.0226 -0.0266342 0
              CHANNELS 3 Zrotation Xrotation Yrotation
              JOINT Head
              {
                OFFSET 6.69363 2.86102e-005 0
                CHANNELS 3 Zrotation Xrotation Yrotation
                End Site
                {
                  OFFSET 0 0 0
                }
              }
            }
          }
        }
      }
    }
  }
}
MOTION
Frames:	18
Frame Time:	0.0333333
43.9074 81.0773 100.51 -91.1514 15.9938 -92.3368 -172.771 28.7898 92.6361 -14.8977 -30.7043 -16.1212 64.6433 -11.4444 -6.37735 28.7808 3.45404e-006 2.93818e-006 166.145 -14.424 81.6841 -27.1937 -27.3586 0.909698 90.4296 -3.10137 -1.2248 28.7808 1.46258e-005 2.12421e-005 2.78196 6.51812 -90.7995 13.6581 4.32405 1.58248 1.99364 4.38948 1.39028 -20.5777 3.64858 2.80982 -0.565069 3.64858 2.80981 102.541 2.14369 -81.01 6.02543 38.1889 -85.1253 -6.51251 -55.7559 -6.29533 -58.7302 6.58586 -16.9605 -83.9081 -14.9609 81.5422 23.7423 -51.4484 -52.2889 4.89473 56.3773 -5.98077 46.6609 -5.59591 -16.4139 23.7792 3.95532 18.1405 -4.86815 -2.04742 -17.1387 
37.8615 82.5945 100.985 -90.0581 16.2594 -95.4643 -176.294 32.184 87.9327 -24.4504 -9.23221 -0.86495 54.3582 -2.63758 -2.16258 28.7808 3.45404e-006 2.93818e-006 163.369 -16.1681 76.1366 -24.6729 -31.3659 -0.703195 78.2394 4.68342 1.70027 28.7808 1.46258e-005 2.12421e-005 2.04258 6.31382 -88.9258 14.2031 4.47899 1.67915 2.53895 4.54874 1.48085 -20.0345 3.76638 2.95143 -0.0218383 3.76638 2.95142 102.764 2.27917 -79.7604 5.61748 38.5933 -84.7044 -7.37258 -61.9619 -6.99917 -59.2067 9.0074 -21.122 -82.4425 -15.9362 85.4318 19.6919 -50.5763 -56.9054 5.18698 58.6549 -6.27468 45.2232 -5.33094 -16.2185 29.3167 2.51661 16.6326 -10.951 -2.87633 -16.3945 
31.3755 84.0315 101.453 -89.2492 18.2019 -97.1179 -177.409 32.3736 85.8804 -31.6782 -6.56536 2.15733 55.888 -1.40934 -1.296 28.7808 3.45404e-006 2.93818e-006 162.104 -13.2075 72.561 -31.9596 -35.7792 -5.216 59.4182 13.0692 8.31035 28.7808 1.46258e-005 2.12421e-005 2.12961 6.17125 -88.6815 14.5151 4.86718 1.66696 2.85277 4.93432 1.44838 -19.7308 4.14288 3.05223 0.281874 4.14287 3.05222 102.873 3.9745 -79.0703 4.53349 39.0663 -81.9827 -7.61721 -63.3703 -7.20848 -57.3854 9.61423 -22.8293 -81.8515 -17.2115 87.139 17.6271 -50.2075 -59.6096 5.45629 60.5014 -6.54536 43.3113 -4.96795 -15.93 31.0595 -0.185106 16.755 -11.3376 -5.71036 -16.4382 
25.4198 85.6986 101.897 -90.2406 20.5093 -96.5834 -177.017 27.1135 85.0723 -31.9087 -7.01172 1.92226 58.4827 3.34731 1.84873 28.7808 3.45404e-006 2.93818e-006 162.857 -9.1083 71.8721 -43.8481 -35.805 -10.4727 41.3048 17.3967 15.5625 28.7808 1.46258e-005 2.12421e-005 2.19027 6.24036 -89.0558 14.3749 4.93162 1.42158 2.71287 4.99004 1.20304 -19.8765 4.27157 2.83763 0.13611 4.27161 2.83763 103.386 4.57519 -77.1706 2.95816 40.5341 -80.2749 -6.98981 -59.4666 -6.67762 -58.5887 10.0394 -23.1568 -81.5179 -16.672 87.8574 16.9397 -50.0784 -60.5443 5.17869 58.599 -6.26594 42.831 -4.16723 -14.1383 34.9818 -3.71723 14.5876 -13.1673 -8.59543 -15.233 
19.6889 87.8152 102.469 -91.4548 23.0739 -94.584 -176.56 19.8779 85.6653 -27.6725 -8.27508 1.12175 60.3787 5.40122 3.08832 28.7808 3.45404e-006 2.93818e-006 164.588 -2.69669 72.8063 -53.4566 -22.8622 -10.3576 30.7732 11.7629 13.6889 28.7808 1.46258e-005 2.12421e-005 1.95965 6.20976 -89.9644 14.3932 4.51585 1.09891 2.72964 4.55982 0.898713 -19.8527 3.97659 2.4071 0.159981 3.97658 2.40708 103.349 3.45048 -77.1006 2.74763 40.8066 -80.3492 -6.06504 -51.5165 -5.95758 -58.9989 8.53328 -20.3531 -81.3326 -14.425 87.931 15.1102 -49.1554 -61.9566 4.40201 51.7046 -5.48499 41.7139 -2.52699 -10.3934 29.7722 -4.69375 18.7641 -7.9558 -10.5909 -27.2131 
14.6496 90.113 102.731 -91.8538 24.3732 -92.2267 -177.092 12.7636 86.69 -20.3908 -9.23041 1.04969 59.3539 6.48315 3.84765 28.7808 3.45404e-006 2.93818e-006 167.062 2.19384 76.3089 -57.7904 -9.51875 -8.71083 36.0586 3.44477 4.39932 28.7808 1.46258e-005 2.12421e-005 1.52288 6.08817 -91.2026 14.5674 3.60921 0.962244 2.90113 3.64803 0.801983 -19.6627 3.15296 2.00365 0.349957 3.15293 2.00363 103.488 -0.140524 -77.1312 2.04477 41.9891 -80.9281 -5.98423 -50.6584 -5.89944 -60.3862 7.62389 -18.3636 -80.4812 -11.4417 89.5972 12.7179 -48.2604 -64.5694 4.22226 49.6763 -5.30339 43.8427 -0.96876 -6.44482 28.8131 -7.96579 13.2361 -7.39113 -11.5021 -24.8359 
10.1551 92.8886 102.386 -94.0051 23.8406 -88.4692 -176.902 3.47806 88.8677 -10.6977 -8.77522 0.947675 53.9005 6.74015 4.33905 28.7808 3.45404e-006 2.93818e-006 169.025 3.65391 81.2043 -57.4026 8.62337 -3.9435 37.6818 -3.90709 -2.63201 28.7808 1.46258e-005 2.12421e-005 0.898469 6.2046 -92.8237 14.3518 2.41597 0.5669 2.68288 2.43834 0.464007 -19.8658 2.1353 1.26239 0.146874 2.13529 1.26237 103.789 -2.75177 -76.3663 1.64159 42.6844 -81.0975 -6.3313 -54.1371 -6.15517 -60.4654 7.52104 -18.1783 -80.1314 -10.4302 90.3996 9.95165 -47.2174 -68.0317 4.09846 48.1514 -5.17839 41.7461 -0.898408 -6.36326 31.97 -8.84423 13.0384 -13.4233 -11.2165 -26.1349 
6.28748 95.786 102.002 -95.2705 22.0693 -86.6489 -176.289 -0.999092 89.8701 -8.35126 -5.85511 1.29645 47.7275 4.62938 3.09795 28.7808 3.45404e-006 2.93818e-006 169.271 6.0422 86.5102 -59.1488 -3.58463 -6.69791 31.7901 -4.69916 -3.41249 28.7808 1.46258e-005 2.12421e-005 0.358093 6.27711 -93.8007 14.2575 1.50988 0.523778 2.58725 1.53145 0.458412 -19.9521 1.28263 0.953456 0.0605408 1.28262 0.95343 103.932 -6.44663 -76.4363 -1.80724 44.6938 -76.2392 -7.11235 -60.3078 -6.77983 -54.7516 6.42726 -17.7379 -81.5089 -8.08884 86.0965 9.55702 -46.2951 -66.9124 4.15973 48.9204 -5.24023 43.2945 -1.38634 -7.44706 31.2125 -17.5749 -3.33332 -12.1387 -14.9603 -3.88237 
3.24096 98.1085 101.456 -95.2404 21.1358 -87.2158 -175.777 -2.32067 89.8372 -8.39339 -2.11278 1.86067 39.8811 -0.0343845 -0.754768 28.7808 3.45404e-006 2.93818e-006 170.348 8.11236 88.4433 -53.6049 -7.14045 -4.50345 37.5778 -0.779117 0.417728 28.7808 1.46258e-005 2.12421e-005 0.211493 6.24904 -93.1024 14.353 0.985206 0.419202 2.68231 1.0027 0.376358 -19.8545 0.813895 0.695245 0.158192 0.813895 0.695218 104.046 -8.55457 -76.3516 -2.78318 44.6438 -73.6359 -6.53254 -55.9269 -6.3104 -54.6138 4.52284 -14.0145 -84.0202 -7.73117 78.7723 12.6275 -47.2453 -62.6794 4.51025 52.839 -5.59373 40.9941 -3.2481 -12.3321 33.2581 -19.8563 -3.38719 -16.0526 -17.1534 -3.1983 
0.174738 99.891 100.968 -94.3839 21.0184 -88.7585 -175.185 -2.5726 89.1098 -8.46349 -0.151517 1.66413 33.237 -3.94342 -4.90897 28.7808 3.45404e-006 2.93818e-006 171.253 11.2397 88.9854 -46.3336 -10.2218 -2.36141 39.4827 -0.157268 0.893588 28.7808 1.46258e-005 2.12421e-005 0.220871 6.16544 -92.0715 14.5269 0.71487 0.402677 2.85607 0.731786 0.372128 -19.6796 0.561248 0.597421 0.333003 0.561222 0.597389 104.581 -10.5834 -75.021 -2.17736 44.1643 -74.1083 -5.715 -47.5647 -5.71161 -55.8112 3.57371 -11.9805 -84.7274 -7.99589 76.7455 10.5203 -47.2614 -66.8617 4.28872 50.4518 -5.37031 34.6122 -5.14859 -19.4392 38.094 -22.9942 -4.82124 -20.7897 -19.845 1.07792 
-3.00112 100.497 100.506 -93.5947 20.8502 -89.9741 -174.617 -2.1363 88.5068 -11.3225 2.69717 2.18325 34.9016 -5.13913 -5.9486 28.7808 3.45404e-006 2.93818e-006 172.348 13.661 89.6046 -37.7579 -12.9229 -1.02275 40.5481 0.711911 1.56018 28.7808 1.46258e-005 2.12421e-005 0.158057 6.15888 -91.1813 14.5534 0.40915 0.266032 2.88253 0.420463 0.247764 -19.6527 0.310263 0.376708 0.359925 0.310278 0.376695 103.554 -8.51989 -77.8825 -4.6289 43.9224 -67.4321 -4.86762 -35.0663 -5.21769 -54.8551 7.22429 -19.1725 -84.2484 -8.21031 78.2055 7.71642 -47.3973 -72.9841 4.78584 55.4311 -5.87139 44.0792 -2.82185 -10.7226 39.6482 -24.4709 -3.32537 -22.0221 -21.7148 0.2288 
-6.21033 99.8115 100.138 -92.9205 20.4609 -90.9642 -174.86 -0.917945 87.619 -15.7192 -0.275372 2.90336 42.8075 -1.97569 -2.38113 28.7808 3.45404e-006 2.93818e-006 173.42 15.3593 90.1474 -27.6834 -13.9876 -0.233022 43.0702 -0.637359 0.216824 28.7808 1.46258e-005 2.12421e-005 0.0460301 6.21182 -90.4128 14.4461 0.134299 0.189825 2.7751 0.142498 0.183757 -19.76 0.0709811 0.221248 0.252684 0.070967 0.221229 103.415 -9.6567 -78.4332 -5.48353 44.5096 -67.1057 -4.17442 -21.3191 -4.9578 -51.2623 12.7411 -31.8472 -82.9492 -7.40469 81.6185 0.682939 -44.9563 -84.8892 3.41497 37.5267 -4.4801 37.2749 -6.4221 -21.9456 43.3784 -26.2445 -2.9276 -25.0614 -23.5345 1.01436 
-9.51572 98.2278 99.766 -93.1054 20.33 -91.6121 -175.257 -1.63972 86.8894 -16.9638 -4.64166 3.03868 47.7769 0.0530335 -0.52833 28.7808 3.45404e-006 2.93818e-006 174.437 16.8551 90.5427 -18.9659 -12.685 0.098082 46.446 -0.229185 0.39062 28.7808 1.46258e-005 2.12421e-005 -0.045786 6.32532 -90.1121 14.2237 -0.0371075 0.0464165 2.55275 -0.0351081 0.0476359 -19.9824 -0.0488592 0.0356426 0.0302471 -0.048869 0.035621 104.043 -12.5219 -76.8215 -3.08565 45.6717 -73.9954 -3.33793 -1.35839 -5.27548 -37.8541 14.7325 -46.2955 -82.2667 -8.70497 84.0201 -7.34829 -39.7294 -100.225 2.25065 -0.420155 -3.57525 19.9905 -6.96274 -37.4796 41.7078 -27.0404 -0.821816 -23.7999 -24.956 -1.61309 
-12.7446 95.8952 99.3134 -93.4434 20.8782 -92.46 -175.386 -3.06638 86.616 -17.2952 -9.2196 1.70824 48.2427 -0.806479 -1.17871 28.7808 3.45404e-006 2.93818e-006 175.299 19.3985 90.8899 -12.6975 -11.2364 -0.125023 48.3682 -0.677594 -0.0373379 28.7808 1.46258e-005 2.12421e-005 -0.16038 6.4316 -89.8811 14.0168 -0.167471 0.145505 2.34586 -0.160898 0.152726 -20.1893 -0.203469 0.0884496 -0.176646 -0.203452 0.0884321 104.522 -19.1926 -76.2959 15.38 47.392 -76.4432 7.52856 9.77542 -50.9335 -27.0341 6.70211 -33.465 -82.1132 -10.0041 84.7725 -16.2806 -36.5274 -97.016 -23.5287 -32.3296 -44.2489 -8.2265 2.47824 -50.9715 37.0223 -27.9315 -1.05254 -20.9237 -25.6029 -3.61959 
-15.863 92.8262 98.7832 -93.1761 21.5312 -93.9445 -174.863 -5.18638 85.3148 -22.0311 8.45083 6.85905 57.8182 0.189371 -0.167772 28.7808 3.45404e-006 2.93818e-006 176.045 22.4758 90.7449 -6.69937 -7.39545 1.03884 49.979 0.242397 0.581078 28.7808 1.46258e-005 2.12421e-005 -0.373418 6.43298 -89.5075 14.0072 -0.424378 0.271283 2.33631 -0.412028 0.289687 -20.1993 -0.486312 0.131203 -0.186678 -0.486313 0.131182 104.116 -24.9666 -77.7328 29.5815 46.1304 -77.5041 26.2178 1.85814 -87.9039 -25.7034 3.10547 -19.0911 -83.3627 -13.5749 82.509 -21.1701 -32.3768 -90.0659 -28.7006 -13.9031 -71.463 6.01987 -1.88165 -27.9965 28.1989 -27.0418 0.00536034 -16.011 -25.0073 -8.85903 
-18.7519 89.3178 98.5519 -93.2538 21.887 -95.3368 -175.883 -9.98636 83.7123 -16.1755 1.80754 3.3684 68.7998 2.62 1.44727 28.7808 3.45404e-006 2.93818e-006 176.502 26.644 90.6552 -4.76411 -7.87442 0.160517 52.7569 -0.592716 -0.0721753 28.7808 1.46258e-005 2.12421e-005 -0.63325 6.45583 -89.6304 13.9656 -0.834168 0.589821 2.29484 -0.807391 0.625995 -20.2421 -0.972927 0.31157 -0.229438 -0.972913 0.311546 102.919 -31.7143 -80.5559 40.0521 47.1041 -78.768 42.5361 -14.8508 -106.215 -17.5969 0.191086 -6.04328 -84.9265 -17.0532 79.7225 -22.5432 -29.2728 -82.0168 -27.0329 -3.61783 -86.7449 1.92465 -0.924612 -25.6045 19.3681 -25.6061 1.4705 -11.9259 -24.0637 -14.9469 
-21.9652 86.6636 98.0526 -93.6121 23.2925 -96.3073 -178.533 -13.5158 80.4726 -14.4351 -4.34735 3.22359 75.9068 5.94134 2.91387 28.7808 3.45404e-006 2.93818e-006 176.937 30.3854 91.1904 -7.10679 -7.79876 -0.607569 52.9581 -2.73585 -1.52181 28.7808 1.46258e-005 2.12421e-005 -0.63781 6.50151 -89.9178 13.8799 -1.12438 0.709343 2.20927 -1.09224 0.757535 -20.3293 -1.28474 0.342803 -0.316662 -1.28475 0.342768 101.432 -36.362 -83.3809 48.1697 51.43 -74.6094 56.6097 -31.7806 -109.193 3.00791 0.075302 0.107926 -87.5847 -21.8986 75.3472 -24.1616 -30.7594 -70.6211 -37.2155 6.36903 -101.939 -13.7423 1.20355 -17.8633 13.1263 -24.166 3.48153 -8.17384 -23.4262 -19.3173 
-25.6425 84.9199 96.9289 -92.601 24.4808 -97.2107 -179.843 -15.8542 79.1121 -13.3397 -6.24511 2.93841 79.5286 6.39669 3.00308 28.7808 3.45404e-006 2.93818e-006 177.467 32.9157 92.3793 -9.91397 -4.22982 -0.926683 53.2238 -6.43475 -4.11984 28.7808 1.46258e-005 2.12421e-005 -0.738663 6.47237 -90.1971 13.9433 -1.34099 0.461884 2.2729 -1.31939 0.520421 -20.2678 -1.41779 0.0374302 -0.255113 -1.41782 0.0374122 101.57 -40.2994 -83.073 51.5232 54.539 -66.5887 54.0141 -39.7428 -114.5 25.6204 2.09459 3.89254 -86.7861 -22.4456 77.2699 -25.2359 -32.2234 -57.7375 -61.2053 23.4279 -104.507 -25.5302 1.21395 -10.3663 12.7982 -23.3938 5.5722 -5.76118 -23.4873 -20.443 
